<?xml version="1.0" encoding="UTF-8" standalone="no"?>
<svg
   xmlns:dc="http://purl.org/dc/elements/1.1/"
   xmlns:cc="http://creativecommons.org/ns#"
   xmlns:rdf="http://www.w3.org/1999/02/22-rdf-syntax-ns#"
   xmlns:svg="http://www.w3.org/2000/svg"
   xmlns="http://www.w3.org/2000/svg"
   id="svg2"
   version="1.1"
   viewBox="0 0 160 80"
   height="60px"
   width="120px">
  <metadata
     id="metadata19">
    <rdf:RDF>
      <cc:Work
         rdf:about="">
        <dc:format>image/svg+xml</dc:format>
        <dc:type
           rdf:resource="http://purl.org/dc/dcmitype/StillImage" />
        <dc:title>logo-header-2</dc:title>
      </cc:Work>
    </rdf:RDF>
  </metadata>
  <g id="g4735">
    <g
       style="fill:none;fill-rule:evenodd;stroke:none;stroke-width:1"
       transform="translate(14,12)">
      <text
         style="font-weight:normal;font-size:48px;font-family:Bangers;fill:#f7f7f7"
         y="-6.8623023"
         x="0.72234762"
         line-spacing="53"
         font-weight="normal"
         font-size="48"
         id="tacks">
        <tspan
           style="fill:#486a77;fill-opacity:1"
           id="tspan13"
           y="45.137695"
           x="0.72234762">tacks</tspan>
      </text>
    </g>
    <g
       id="g4723"
       transform="matrix(0.85911744,0,0,0.85911744,16.824951,9.4762883)">
      <path
         d="m 115,19 c 0,0 -6,4.509799 -6,7.787291 0,3.277492 6,5.341235 6,8.784519 C 115,39.015094 109,44 109,44"
         style="stroke:#f7f7f7;stroke-width:2;stroke-linecap:round;fill:none;stroke-miterlimit:4"
         transform="translate(14,12)" />
      <path
         d="m 134.81974,29.445542 -0.59593,0.07462 -0.59592,0.07461 -0.59153,-0.661984 -0.59153,-0.661984 -0.11768,0.006 c -0.14968,0.0077 -0.21466,-0.06672 -0.1869,-0.213957 l 0.0218,-0.115809 -0.57647,-0.675142 -0.57646,-0.675141 0.15402,-0.580495 0.15405,-0.580486 c -0.84703,-0.96968 -1.79777,-2.095916 -1.64573,-2.228723 0.23634,-0.206451 4.72232,-4.162051 4.87255,-4.230472 0.24897,-0.11325 0.6183,0.134223 1.43139,0.9591 0.47893,0.485878 0.5094,0.51106 0.57445,0.473864 0.038,-0.02129 0.42327,-0.245852 0.85669,-0.498347 2.62673,-1.530324 6.99006,-3.651958 8.04139,-3.910056 0.34918,-0.08573 0.75195,0.375363 0.62007,0.709857 -0.39708,1.007095 -3.08595,5.045654 -4.95547,7.44284 -0.30844,0.395568 -0.58251,0.747408 -0.60898,0.781924 -0.0456,0.05946 -0.0247,0.09303 0.39235,0.632924 0.70809,0.916608 0.90369,1.315838 0.758,1.547331 -0.10205,0.162304 -4.60409,4.024381 -4.89818,4.281272 -0.12997,0.113525 -1.07567,-0.966886 -1.93594,-1.951734 z"
         style="fill:#ffffff;stroke:#486a77;stroke-width:1.5;stroke-linecap:round;stroke-linejoin:round" />
    </g>
  </g>
</svg>
